{
	"asset":{
		"generator":"Khronos glTF Blender I/O v3.6.27",
		"version":"2.0"
	},
	"scene":0,
	"scenes":[
		{
			"name":"Scene",
			"nodes":[
				0,
				1,
				2,
				3
			]
		}
	],
	"nodes":[
		{
			"mesh":0,
			"name":"Plane"
		},
		{
			"mesh":1,
			"name":"Cube",
			"translation":[
				-6,
				1,
				-5
			]
		},
		{
			"mesh":2,
			"name":"Cylinder",
			"translation":[
				-6,
				1,
				5
			]
		},
		{
			"mesh":3,
			"name":"Plane.001"
		}
	],
	"materials":[
		{
			"doubleSided":true,
			"name":"floor",
			"pbrMetallicRoughness":{
				"baseColorTexture":{
					"index":0
				},
				"metallicFactor":0,
				"roughnessFactor":0.5
			}
		}
	],
	"meshes":[
		{
			"name":"Plane",
			"primitives":[
				{
					"attributes":{
						"POSITION":0,
						"NORMAL":1,
						"TEXCOORD_0":2
					},
					"indices":3,
					"material":0
				}
			]
		},
		{
			"name":"Cube.001",
			"primitives":[
				{
					"attributes":{
						"POSITION":4,
						"NORMAL":5,
						"TEXCOORD_0":6
					},
					"indices":7
				}
			]
		},
		{
			"name":"Cylinder",
			"primitives":[
				{
					"attributes":{
						"POSITION":8,
						"NORMAL":9,
						"TEXCOORD_0":10
					},
					"indices":11
				}
			]
		},
		{
			"name":"Plane.001",
			"primitives":[
				{
					"attributes":{
						"POSITION":12,
						"NORMAL":13,
						"TEXCOORD_0":14
					},
					"indices":15
				}
			]
		}
	],
	"textures":[
		{
			"sampler":0,
			"source":0
		}
	],
	"images":[
		{
			"mimeType":"image/png",
			"name":"test",
			"uri":"textures/test.png"
		}
	],
	"accessors":[
		{
			"bufferView":0,
			"componentType":5126,
			"count":109,
			"max":[
				28,
				6,
				10
			],
			"min":[
				-24,
				0,
				-10
			],
			"type":"VEC3"
		},
		{
			"bufferView":1,
			"componentType":5126,
			"count":109,
			"type":"VEC3"
		},
		{
			"bufferView":2,
			"componentType":5126,
			"count":109,
			"type":"VEC2"
		},
		{
			"bufferView":3,
			"componentType":5123,
			"count":222,
			"type":"SCALAR"
		},
		{
			"bufferView":4,
			"componentType":5126,
			"count":58,
			"max":[
				1,
				4,
				3
			],
			"min":[
				-3,
				-1,
				-1
			],
			"type":"VEC3"
		},
		{
			"bufferView":5,
			"componentType":5126,
			"count":58,
			"type":"VEC3"
		},
		{
			"bufferView":6,
			"componentType":5126,
			"count":58,
			"type":"VEC2"
		},
		{
			"bufferView":7,
			"componentType":5123,
			"count":132,
			"type":"SCALAR"
		},
		{
			"bufferView":8,
			"componentType":5126,
			"count":192,
			"max":[
				1,
				3,
				1
			],
			"min":[
				-1,
				-1,
				-1
			],
			"type":"VEC3"
		},
		{
			"bufferView":9,
			"componentType":5126,
			"count":192,
			"type":"VEC3"
		},
		{
			"bufferView":10,
			"componentType":5126,
			"count":192,
			"type":"VEC2"
		},
		{
			"bufferView":11,
			"componentType":5123,
			"count":372,
			"type":"SCALAR"
		},
		{
			"bufferView":12,
			"componentType":5126,
			"count":50,
			"max":[
				28.000001907348633,
				6,
				24
			],
			"min":[
				10,
				0,
				-2.700070381164551
			],
			"type":"VEC3"
		},
		{
			"bufferView":13,
			"componentType":5126,
			"count":50,
			"type":"VEC3"
		},
		{
			"bufferView":14,
			"componentType":5126,
			"count":50,
			"type":"VEC2"
		},
		{
			"bufferView":15,
			"componentType":5123,
			"count":87,
			"type":"SCALAR"
		}
	],
	"bufferViews":[
		{
			"buffer":0,
			"byteLength":1308,
			"byteOffset":0,
			"target":34962
		},
		{
			"buffer":0,
			"byteLength":1308,
			"byteOffset":1308,
			"target":34962
		},
		{
			"buffer":0,
			"byteLength":872,
			"byteOffset":2616,
			"target":34962
		},
		{
			"buffer":0,
			"byteLength":444,
			"byteOffset":3488,
			"target":34963
		},
		{
			"buffer":0,
			"byteLength":696,
			"byteOffset":3932,
			"target":34962
		},
		{
			"buffer":0,
			"byteLength":696,
			"byteOffset":4628,
			"target":34962
		},
		{
			"buffer":0,
			"byteLength":464,
			"byteOffset":5324,
			"target":34962
		},
		{
			"buffer":0,
			"byteLength":264,
			"byteOffset":5788,
			"target":34963
		},
		{
			"buffer":0,
			"byteLength":2304,
			"byteOffset":6052,
			"target":34962
		},
		{
			"buffer":0,
			"byteLength":2304,
			"byteOffset":8356,
			"target":34962
		},
		{
			"buffer":0,
			"byteLength":1536,
			"byteOffset":10660,
			"target":34962
		},
		{
			"buffer":0,
			"byteLength":744,
			"byteOffset":12196,
			"target":34963
		},
		{
			"buffer":0,
			"byteLength":600,
			"byteOffset":12940,
			"target":34962
		},
		{
			"buffer":0,
			"byteLength":600,
			"byteOffset":13540,
			"target":34962
		},
		{
			"buffer":0,
			"byteLength":400,
			"byteOffset":14140,
			"target":34962
		},
		{
			"buffer":0,
			"byteLength":174,
			"byteOffset":14540,
			"target":34963
		}
	],
	"samplers":[
		{
			"magFilter":9728,
			"minFilter":9984
		}
	],
	"buffers":[
		{
			"byteLength":14716,
			"uri":"_testlvl.bin"
		}
	]
}
