{
	"asset":{
		"generator":"Khronos glTF Blender I/O v3.6.27",
		"version":"2.0"
	},
	"scene":0,
	"scenes":[
		{
			"name":"Scene",
			"nodes":[
				0,
				1,
				2,
				3
			]
		}
	],
	"nodes":[
		{
			"mesh":0,
			"name":"Plane",
			"scale":[
				10,
				10,
				10
			]
		},
		{
			"mesh":1,
			"name":"Cube",
			"translation":[
				-6,
				1,
				-5
			]
		},
		{
			"mesh":2,
			"name":"Cylinder",
			"translation":[
				-6,
				1,
				5
			]
		},
		{
			"mesh":3,
			"name":"Plane.001",
			"scale":[
				10,
				10,
				10
			]
		}
	],
	"materials":[
		{
			"doubleSided":true,
			"name":"floor",
			"pbrMetallicRoughness":{
				"baseColorTexture":{
					"index":0
				},
				"metallicFactor":0,
				"roughnessFactor":0.5
			}
		}
	],
	"meshes":[
		{
			"name":"Plane",
			"primitives":[
				{
					"attributes":{
						"POSITION":0,
						"NORMAL":1,
						"TEXCOORD_0":2
					},
					"indices":3,
					"material":0
				}
			]
		},
		{
			"name":"Cube.001",
			"primitives":[
				{
					"attributes":{
						"POSITION":4,
						"NORMAL":5,
						"TEXCOORD_0":6
					},
					"indices":7
				}
			]
		},
		{
			"name":"Cylinder",
			"primitives":[
				{
					"attributes":{
						"POSITION":8,
						"NORMAL":9,
						"TEXCOORD_0":10
					},
					"indices":11
				}
			]
		},
		{
			"name":"Plane.001",
			"primitives":[
				{
					"attributes":{
						"POSITION":12,
						"NORMAL":13,
						"TEXCOORD_0":14
					},
					"indices":15
				}
			]
		}
	],
	"textures":[
		{
			"sampler":0,
			"source":0
		}
	],
	"images":[
		{
			"mimeType":"image/png",
			"name":"test",
			"uri":"textures/test.png"
		}
	],
	"accessors":[
		{
			"bufferView":0,
			"componentType":5126,
			"count":32,
			"max":[
				1.600000023841858,
				0.6000000238418579,
				1
			],
			"min":[
				-1,
				0,
				-1
			],
			"type":"VEC3"
		},
		{
			"bufferView":1,
			"componentType":5126,
			"count":32,
			"type":"VEC3"
		},
		{
			"bufferView":2,
			"componentType":5126,
			"count":32,
			"type":"VEC2"
		},
		{
			"bufferView":3,
			"componentType":5123,
			"count":60,
			"type":"SCALAR"
		},
		{
			"bufferView":4,
			"componentType":5126,
			"count":58,
			"max":[
				1,
				4,
				3
			],
			"min":[
				-3,
				-1,
				-1
			],
			"type":"VEC3"
		},
		{
			"bufferView":5,
			"componentType":5126,
			"count":58,
			"type":"VEC3"
		},
		{
			"bufferView":6,
			"componentType":5126,
			"count":58,
			"type":"VEC2"
		},
		{
			"bufferView":7,
			"componentType":5123,
			"count":132,
			"type":"SCALAR"
		},
		{
			"bufferView":8,
			"componentType":5126,
			"count":192,
			"max":[
				1,
				3,
				1
			],
			"min":[
				-1,
				-1,
				-1
			],
			"type":"VEC3"
		},
		{
			"bufferView":9,
			"componentType":5126,
			"count":192,
			"type":"VEC3"
		},
		{
			"bufferView":10,
			"componentType":5126,
			"count":192,
			"type":"VEC2"
		},
		{
			"bufferView":11,
			"componentType":5123,
			"count":372,
			"type":"SCALAR"
		},
		{
			"bufferView":12,
			"componentType":5126,
			"count":8,
			"max":[
				1.600000023841858,
				0.6000000238418579,
				1
			],
			"min":[
				1,
				0,
				-0.27000704407691956
			],
			"type":"VEC3"
		},
		{
			"bufferView":13,
			"componentType":5126,
			"count":8,
			"type":"VEC3"
		},
		{
			"bufferView":14,
			"componentType":5126,
			"count":8,
			"type":"VEC2"
		},
		{
			"bufferView":15,
			"componentType":5123,
			"count":12,
			"type":"SCALAR"
		}
	],
	"bufferViews":[
		{
			"buffer":0,
			"byteLength":384,
			"byteOffset":0,
			"target":34962
		},
		{
			"buffer":0,
			"byteLength":384,
			"byteOffset":384,
			"target":34962
		},
		{
			"buffer":0,
			"byteLength":256,
			"byteOffset":768,
			"target":34962
		},
		{
			"buffer":0,
			"byteLength":120,
			"byteOffset":1024,
			"target":34963
		},
		{
			"buffer":0,
			"byteLength":696,
			"byteOffset":1144,
			"target":34962
		},
		{
			"buffer":0,
			"byteLength":696,
			"byteOffset":1840,
			"target":34962
		},
		{
			"buffer":0,
			"byteLength":464,
			"byteOffset":2536,
			"target":34962
		},
		{
			"buffer":0,
			"byteLength":264,
			"byteOffset":3000,
			"target":34963
		},
		{
			"buffer":0,
			"byteLength":2304,
			"byteOffset":3264,
			"target":34962
		},
		{
			"buffer":0,
			"byteLength":2304,
			"byteOffset":5568,
			"target":34962
		},
		{
			"buffer":0,
			"byteLength":1536,
			"byteOffset":7872,
			"target":34962
		},
		{
			"buffer":0,
			"byteLength":744,
			"byteOffset":9408,
			"target":34963
		},
		{
			"buffer":0,
			"byteLength":96,
			"byteOffset":10152,
			"target":34962
		},
		{
			"buffer":0,
			"byteLength":96,
			"byteOffset":10248,
			"target":34962
		},
		{
			"buffer":0,
			"byteLength":64,
			"byteOffset":10344,
			"target":34962
		},
		{
			"buffer":0,
			"byteLength":24,
			"byteOffset":10408,
			"target":34963
		}
	],
	"samplers":[
		{
			"magFilter":9728,
			"minFilter":9984
		}
	],
	"buffers":[
		{
			"byteLength":10432,
			"uri":"_testlvl.bin"
		}
	]
}
